<svg data-v-fde0c5aa="" xmlns="http://www.w3.org/2000/svg" viewBox="0 0 300 300" class="font"><!----><defs data-v-fde0c5aa=""><linearGradient data-v-fde0c5aa="" gradientTransform="rotate(25)" id="7784edcb-8676-4765-a5e4-ee7b8e81b6e6" x1="0%" y1="0%" x2="100%" y2="0%"><stop data-v-fde0c5aa="" offset="0%" stop-color="#C06D69" stop-opacity="1"></stop><stop data-v-fde0c5aa="" offset="100%" stop-color="#D2B05C" stop-opacity="1"></stop></linearGradient></defs><rect data-v-fde0c5aa="" fill="url(#7784edcb-8676-4765-a5e4-ee7b8e81b6e6)" x="0" y="0" width="300px" height="300px" class="logo-background-square"></rect><defs data-v-fde0c5aa=""><!----></defs><g data-v-fde0c5aa="" id="93a879b0-7c31-4fd3-80e5-7b98b0fb4301" fill="#ffffff" transform="matrix(6.748466573538122,0,0,6.748466573538122,25.288342419178147,78.87116257234176)"><path d="M2.35 14.45L2.35 14.45L2.35 14.45Q2.56 13.99 2.86 13.26L2.86 13.26L2.86 13.26Q3.15 12.53 3.47 11.68L3.47 11.68L3.47 11.68Q3.79 10.84 4.13 9.95L4.13 9.95L4.13 9.95Q4.47 9.06 4.76 8.26L4.76 8.26L4.76 8.26Q5.05 7.46 5.27 6.83L5.27 6.83L5.27 6.83Q5.49 6.20 5.59 5.87L5.59 5.87L5.59 5.87Q4.70 6.23 4.07 6.97L4.07 6.97L4.07 6.97Q3.44 7.71 3.12 8.83L3.12 8.83L3.12 8.83Q2.80 8.72 2.53 8.43L2.53 8.43L2.53 8.43Q2.27 8.15 2.18 7.71L2.18 7.71L2.18 7.71Q2.32 7.07 2.71 6.54L2.71 6.54L2.71 6.54Q3.09 6.01 3.68 5.63L3.68 5.63L3.68 5.63Q4.27 5.25 5.04 5.05L5.04 5.05L5.04 5.05Q5.81 4.84 6.69 4.84L6.69 4.84L6.69 4.84Q7.81 4.84 8.75 5.17L8.75 5.17L8.75 5.17Q9.69 5.50 10.36 6.09L10.36 6.09L10.36 6.09Q11.03 6.68 11.41 7.50L11.41 7.50L11.41 7.50Q11.79 8.33 11.79 9.34L11.79 9.34L11.79 9.34Q11.79 10.71 11.28 11.96L11.28 11.96L11.28 11.96Q10.78 13.20 9.92 14.15L9.92 14.15L9.92 14.15Q9.06 15.11 7.92 15.67L7.92 15.67L7.92 15.67Q6.79 16.24 5.54 16.24L5.54 16.24L5.54 16.24Q4.40 16.24 3.58 15.79L3.58 15.79L3.58 15.79Q2.76 15.33 2.35 14.45ZM7.29 5.54L7.29 5.54L7.29 5.54Q6.59 5.54 5.96 5.74L5.96 5.74L5.96 5.74Q6.58 5.96 6.99 6.21L6.99 6.21L6.99 6.21Q7.39 6.45 7.55 6.59L7.55 6.59L7.55 6.59Q7.43 6.75 7.22 7.14L7.22 7.14L7.22 7.14Q7 7.53 6.71 8.09L6.71 8.09L6.71 8.09Q6.43 8.65 6.10 9.32L6.10 9.32L6.10 9.32Q5.78 9.98 5.47 10.68L5.47 10.68L5.47 10.68Q4.68 12.46 4.32 13.48L4.32 13.48L4.32 13.48Q3.96 14.50 3.96 14.90L3.96 14.90L3.96 14.90Q4.16 14.97 4.44 14.99L4.44 14.99L4.44 14.99Q4.72 15.02 5.04 15.02L5.04 15.02L5.04 15.02Q6.17 15.02 7.19 14.50L7.19 14.50L7.19 14.50Q8.20 13.97 8.97 13.09L8.97 13.09L8.97 13.09Q9.73 12.21 10.17 11.04L10.17 11.04L10.17 11.04Q10.61 9.87 10.61 8.58L10.61 8.58L10.61 8.58Q10.61 7.14 9.72 6.34L9.72 6.34L9.72 6.34Q8.82 5.54 7.29 5.54ZM17.01 9.52L17.01 9.52L17.01 9.52Q17.15 9.52 17.34 9.57L17.34 9.57L17.34 9.57Q17.53 9.62 17.68 9.70L17.68 9.70L17.68 9.70Q17.84 9.77 17.94 9.86L17.94 9.86L17.94 9.86Q18.05 9.94 18.05 10.01L18.05 10.01L18.05 10.01Q17.77 10.60 17.53 11.19L17.53 11.19L17.53 11.19Q17.29 11.79 17.12 12.33L17.12 12.33L17.12 12.33Q16.95 12.88 16.86 13.36L16.86 13.36L16.86 13.36Q16.77 13.83 16.77 14.18L16.77 14.18L16.77 14.18Q16.77 14.57 16.86 14.83L16.86 14.83L16.86 14.83Q16.94 15.09 17.14 15.20L17.14 15.20L17.14 15.20Q16.97 15.32 16.70 15.39L16.70 15.39L16.70 15.39Q16.44 15.46 16.23 15.46L16.23 15.46L16.23 15.46Q15.47 15.46 15.47 14.42L15.47 14.42L15.47 14.42Q15.47 13.62 16.00 12.24L16.00 12.24L16.00 12.24Q15.72 12.88 15.36 13.45L15.36 13.45L15.36 13.45Q14.99 14.01 14.62 14.45L14.62 14.45L14.62 14.45Q14.24 14.88 13.85 15.15L13.85 15.15L13.85 15.15Q13.47 15.43 13.15 15.48L13.15 15.48L13.15 15.48Q12.63 15.46 12.31 14.99L12.31 14.99L12.31 14.99Q11.98 14.52 11.98 13.79L11.98 13.79L11.98 13.79Q11.98 13.01 12.32 12.14L12.32 12.14L12.32 12.14Q12.66 11.27 13.18 10.53L13.18 10.53L13.18 10.53Q13.71 9.79 14.32 9.29L14.32 9.29L14.32 9.29Q14.94 8.79 15.51 8.76L15.51 8.76L15.51 8.76Q15.65 8.81 15.83 8.93L15.83 8.93L15.83 8.93Q16.00 9.06 16.16 9.23L16.16 9.23L16.16 9.23Q16.32 9.39 16.44 9.57L16.44 9.57L16.44 9.57Q16.55 9.74 16.56 9.87L16.56 9.87L16.56 9.87Q16.00 9.95 15.41 10.42L15.41 10.42L15.41 10.42Q14.81 10.88 14.33 11.53L14.33 11.53L14.33 11.53Q13.85 12.18 13.54 12.92L13.54 12.92L13.54 12.92Q13.23 13.66 13.23 14.31L13.23 14.31L13.23 14.31Q13.23 14.57 13.43 14.64L13.43 14.64L13.43 14.64Q13.83 14.56 14.36 13.95L14.36 13.95L14.36 13.95Q14.90 13.34 15.65 12.07L15.65 12.07L15.65 12.07Q15.79 11.82 15.97 11.51L15.97 11.51L15.97 11.51Q16.14 11.20 16.32 10.86L16.32 10.86L16.32 10.86Q16.51 10.53 16.68 10.18L16.68 10.18L16.68 10.18Q16.86 9.84 17.01 9.52ZM18.79 14.60L18.79 14.60L18.79 14.60Q18.79 14.32 18.85 13.82L18.85 13.82L18.85 13.82Q18.91 13.31 19.02 12.73L19.02 12.73L19.02 12.73Q19.12 12.14 19.26 11.52L19.26 11.52L19.26 11.52Q19.39 10.91 19.53 10.42L19.53 10.42L19.53 10.42Q19.71 9.76 20.10 9.40L20.10 9.40L20.10 9.40Q20.48 9.04 21.06 9.04L21.06 9.04L21.06 9.04Q21.36 9.04 21.67 9.14L21.67 9.14L21.67 9.14Q21.97 9.24 22.02 9.39L22.02 9.39L22.02 9.39Q21.62 9.73 21.37 10.23L21.37 10.23L21.37 10.23Q21.13 10.72 20.98 11.29L20.98 11.29L20.98 11.29Q20.83 11.86 20.76 12.45L20.76 12.45L20.76 12.45Q20.68 13.05 20.59 13.57L20.59 13.57L20.59 13.57Q21.06 12.95 21.47 12.45L21.47 12.45L21.47 12.45Q21.88 11.96 22.20 11.66L22.20 11.66L22.20 11.66Q22.64 11.26 22.79 10.98L22.79 10.98L22.79 10.98Q22.95 10.71 23.06 10.39L23.06 10.39L23.06 10.39Q23.14 10.14 23.26 9.80L23.26 9.80L23.26 9.80Q23.38 9.46 23.66 9.18L23.66 9.18L23.66 9.18Q23.72 9.17 23.90 9.17L23.90 9.17L23.90 9.17Q24.04 9.17 24.20 9.18L24.20 9.18L24.20 9.18Q24.36 9.20 24.50 9.24L24.50 9.24L24.50 9.24Q24.64 9.28 24.74 9.34L24.74 9.34L24.74 9.34Q24.84 9.39 24.85 9.48L24.85 9.48L24.85 9.48Q24.63 9.77 24.43 10.39L24.43 10.39L24.43 10.39Q24.23 11.02 24.08 11.76L24.08 11.76L24.08 11.76Q23.93 12.50 23.80 13.24L23.80 13.24L23.80 13.24Q23.67 13.97 23.58 14.48L23.58 14.48L23.58 14.48Q23.63 14.45 23.83 14.25L23.83 14.25L23.83 14.25Q24.02 14.06 24.27 13.76L24.27 13.76L24.27 13.76Q24.51 13.47 24.79 13.12L24.79 13.12L24.79 13.12Q25.06 12.77 25.27 12.43L25.27 12.43L25.27 12.43Q25.54 12.03 25.71 11.67L25.71 11.67L25.71 11.67Q25.89 11.31 26.02 10.91L26.02 10.91L26.02 10.91Q26.15 10.50 26.26 10.00L26.26 10.00L26.26 10.00Q26.38 9.51 26.50 8.82L26.50 8.82L26.50 8.82Q26.59 8.71 26.87 8.63L26.87 8.63L26.87 8.63Q27.16 8.55 27.40 8.55L27.40 8.55L27.40 8.55Q27.61 8.55 27.71 8.62L27.71 8.62L27.71 8.62Q27.64 9.41 27.45 10.02L27.45 10.02L27.45 10.02Q27.26 10.64 26.94 11.22L26.94 11.22L26.94 11.22Q26.61 11.80 26.14 12.38L26.14 12.38L26.14 12.38Q25.66 12.96 25.02 13.65L25.02 13.65L25.02 13.65Q24.75 13.93 24.44 14.27L24.44 14.27L24.44 14.27Q24.12 14.60 23.82 14.89L23.82 14.89L23.82 14.89Q23.52 15.18 23.26 15.37L23.26 15.37L23.26 15.37Q23.00 15.57 22.86 15.57L22.86 15.57L22.86 15.57Q22.54 15.57 22.33 15.32L22.33 15.32L22.33 15.32Q22.12 15.06 22.12 14.67L22.12 14.67L22.12 14.67Q22.12 14.27 22.16 13.96L22.16 13.96L22.16 13.96Q22.19 13.66 22.27 13.33L22.27 13.33L22.27 13.33Q22.36 13.02 22.41 12.81L22.41 12.81L22.41 12.81Q22.46 12.60 22.49 12.45L22.49 12.45L22.49 12.45Q22.53 12.29 22.54 12.18L22.54 12.18L22.54 12.18Q22.55 12.07 22.57 11.96L22.57 11.96L22.57 11.96Q22.46 12.01 22.27 12.19L22.27 12.19L22.27 12.19Q22.09 12.36 21.90 12.59L21.90 12.59L21.90 12.59Q21.70 12.82 21.50 13.06L21.50 13.06L21.50 13.06Q21.31 13.30 21.18 13.47L21.18 13.47L21.18 13.47Q20.92 13.83 20.72 14.11L20.72 14.11L20.72 14.11Q20.52 14.39 20.35 14.64L20.35 14.64L20.35 14.64Q20.17 14.90 20.01 15.15L20.01 15.15L20.01 15.15Q19.84 15.41 19.61 15.71L19.61 15.71L19.61 15.71Q19.17 15.57 18.98 15.29L18.98 15.29L18.98 15.29Q18.79 15.01 18.79 14.60ZM29.82 8.39L29.82 8.39L29.82 8.39Q30.18 8.50 30.51 8.88L30.51 8.88L30.51 8.88Q30.83 9.27 30.98 9.73L30.98 9.73L30.98 9.73Q30.83 10.11 30.51 10.64L30.51 10.64L30.51 10.64Q30.18 11.17 29.86 11.72L29.86 11.72L29.86 11.72Q29.54 12.28 29.28 12.78L29.28 12.78L29.28 12.78Q29.02 13.27 28.98 13.59L28.98 13.59L28.98 13.59Q29.20 13.36 29.48 13.04L29.48 13.04L29.48 13.04Q29.75 12.73 30.01 12.41L30.01 12.41L30.01 12.41Q30.27 12.10 30.49 11.84L30.49 11.84L30.49 11.84Q30.72 11.58 30.84 11.45L30.84 11.45L30.84 11.45Q31.11 11.17 31.47 10.80L31.47 10.80L31.47 10.80Q31.84 10.43 32.23 10.10L32.23 10.10L32.23 10.10Q32.63 9.77 33.04 9.54L33.04 9.54L33.04 9.54Q33.45 9.31 33.78 9.31L33.78 9.31L33.78 9.31Q34.15 9.31 34.39 9.55L34.39 9.55L34.39 9.55Q34.64 9.80 34.78 10.07L34.78 10.07L34.78 10.07Q34.78 10.09 34.67 10.14L34.67 10.14L34.67 10.14Q34.57 10.19 34.37 10.42L34.37 10.42L34.37 10.42Q34.17 10.67 33.93 11.11L33.93 11.11L33.93 11.11Q33.68 11.55 33.45 12.06L33.45 12.06L33.45 12.06Q33.22 12.57 33.07 13.10L33.07 13.10L33.07 13.10Q32.91 13.64 32.91 14.07L32.91 14.07L32.91 14.07Q32.91 14.42 33.01 14.52L33.01 14.52L33.01 14.52Q33.10 14.62 33.26 14.62L33.26 14.62L33.26 14.62Q33.42 14.62 33.59 14.55L33.59 14.55L33.59 14.55Q33.75 14.48 33.85 14.48L33.85 14.48L33.85 14.48Q33.91 14.50 33.94 14.60L33.94 14.60L33.94 14.60Q33.98 14.69 33.98 14.76L33.98 14.76L33.98 14.76Q33.87 14.85 33.71 14.95L33.71 14.95L33.71 14.95Q33.56 15.05 33.39 15.13L33.39 15.13L33.39 15.13Q33.22 15.22 33.06 15.27L33.06 15.27L33.06 15.27Q32.90 15.33 32.77 15.33L32.77 15.33L32.77 15.33Q32.37 15.33 32.11 15.21L32.11 15.21L32.11 15.21Q31.85 15.09 31.70 14.90L31.70 14.90L31.70 14.90Q31.56 14.70 31.50 14.43L31.50 14.43L31.50 14.43Q31.44 14.15 31.44 13.85L31.44 13.85L31.44 13.85Q31.44 13.68 31.47 13.47L31.47 13.47L31.47 13.47Q31.50 13.26 31.58 12.97L31.58 12.97L31.58 12.97Q31.67 12.68 31.82 12.29L31.82 12.29L31.82 12.29Q31.98 11.89 32.21 11.33L32.21 11.33L32.21 11.33Q32.19 11.33 31.84 11.52L31.84 11.52L31.84 11.52Q31.49 11.72 31.08 12.12L31.08 12.12L31.08 12.12Q30.42 12.75 29.90 13.37L29.90 13.37L29.90 13.37Q29.37 13.99 28.83 14.74L28.83 14.74L28.83 14.74Q28.52 15.18 28.29 15.48L28.29 15.48L28.29 15.48Q28.06 15.78 27.89 15.88L27.89 15.88L27.89 15.88Q27.59 15.71 27.45 15.41L27.45 15.41L27.45 15.41Q27.31 15.11 27.24 14.78L27.24 14.78L27.24 14.78Q27.24 14.52 27.32 14.11L27.32 14.11L27.32 14.11Q27.40 13.71 27.53 13.21L27.53 13.21L27.53 13.21Q27.66 12.71 27.86 12.17L27.86 12.17L27.86 12.17Q28.06 11.62 28.29 11.07L28.29 11.07L28.29 11.07Q28.83 9.84 29.27 9.14L29.27 9.14L29.27 9.14Q29.71 8.44 29.82 8.39Z"></path></g><!----><!----></svg>